<?xml version="1.0" encoding="UTF-8" standalone="no"?>
<svg
   version="1.1"
   viewBox="0 0 100 120"
   width="100"
   height="120"
   id="logo"
   xmlns="http://www.w3.org/2000/svg"
   xmlns:svg="http://www.w3.org/2000/svg"
   xmlns:rdf="http://www.w3.org/1999/02/22-rdf-syntax-ns#"
   xmlns:cc="http://creativecommons.org/ns#"
   xmlns:dc="http://purl.org/dc/elements/1.1/">
  <path
     d="m 74.171614,93.4861 a 6.5437387,-6.4909467 0 0 0 -6.543739,-6.4909 6.5437387,-6.4909467 0 0 0 -6.543738,6.4909 6.5437387,-6.4909467 0 0 0 6.543738,6.491 6.5437387,-6.4909467 0 0 0 6.543739,-6.491 m 11.091081,-8.5812 -8.983777,-8.9113 c 14.75114,-14.6322 14.75114,-38.1756 0,-52.587704 C 61.527779,8.7738 37.792863,8.7738 23.263545,23.405896 8.5124053,38.038 8.5124053,61.5815 23.263545,75.9936 v 0 l 23.402184,23.2134 3.327324,3.3004 v 0 V 120 L 14.723412,85.0149 c -19.6312161,-19.4728 -19.6312161,-50.9374 0,-70.4103 19.631215,-19.4728 51.351711,-19.4728 70.650194,0 19.520304,19.4729 19.520304,50.7174 -0.110911,70.3003 z"
     style="fill:#ee4c2c"
     id="pytorch" />
  <path
     d="M 49.964138,84 A 33.999997,-33.999997 0 0 1 39.799995,82.433 V 59.0323 L 62.417972,81.6504 A 33.999997,-33.999997 0 0 1 49.999995,84 33.999997,-33.999997 0 0 1 49.963965,84 Z M 36.4,81.1618 A 33.999997,-33.999997 0 0 1 19.852895,65.7207 L 36.4,49.1754 Z M 65.721006,80.1473 49.175236,63.6 H 81.161792 A 33.999997,-33.999997 0 0 1 65.721006,80.1473 Z M 18.349456,62.4181 A 33.999997,-33.999997 0 0 1 16,50 33.999997,-33.999997 0 0 1 17.567187,39.8 H 40.967423 Z M 59.032587,60.2 81.650539,37.5819 A 33.999997,-33.999997 0 0 1 84,50 33.999997,-33.999997 0 0 1 82.432803,60.2 Z M 63.6,50.8246 V 18.8382 A 33.999997,-33.999997 0 0 1 80.14577,34.2793 Z M 60.19999,40.9661 37.582028,18.3495 A 33.999997,-33.999997 0 0 1 49.999995,16 33.999997,-33.999997 0 0 1 60.19999,17.567 Z M 18.838203,36.4 A 33.999997,-33.999997 0 0 1 34.278984,19.8542 L 50.824764,36.4 Z"
     style="fill:#252525"
     id="shutter" />
</svg>
