<?xml version="1.0" encoding="UTF-8" standalone="no"?>
<svg
   id="banner"
   height="500"
   width="1280"
   viewBox="0 0 1280 500"
   version="1.1"
   xmlns="http://www.w3.org/2000/svg"
   xmlns:svg="http://www.w3.org/2000/svg">
  <g
     id="name">
    <g
       id="logo">
      <path
         d="m 738.51484,400.4583 a 19.631216,19.47284 0 0 0 -19.63122,-19.4727 19.631216,19.47284 0 0 0 -19.63121,19.4727 19.631216,19.47284 0 0 0 19.63121,19.473 19.631216,19.47284 0 0 0 19.63122,-19.473 m 33.27325,-25.7436 -26.95134,-26.7339 c 44.25342,-43.8966 44.25342,-114.5268 0,-157.76311 -44.25341,-43.89629 -115.45816,-43.89629 -159.04611,0 -44.25342,43.89631 -44.25342,114.52681 0,157.76311 v 0 l 70.20655,69.6402 9.98197,9.9012 v 0 V 480 L 560.17024,375.0447 c -58.89365,-58.4184 -58.89365,-152.8122 0,-211.2309 58.89364,-58.4184 154.05513,-58.4184 211.95058,0 58.56091,58.4187 58.56091,152.1522 -0.33273,210.9009 z"
         style="fill:#ee4c2c"
         id="pytorch" />
      <path
         d="m 665.89241,372 a 101.99999,101.99999 0 0 1 -30.49242,-4.701 v -70.2021 l 67.85393,67.8543 A 101.99999,101.99999 0 0 1 665.99998,372 a 101.99999,101.99999 0 0 1 -0.10809,0 z M 625.2,363.4854 A 101.99999,101.99999 0 0 1 575.55868,317.1621 L 625.2,267.5262 Z M 713.16302,360.4419 663.52571,310.8 h 95.95967 a 101.99999,101.99999 0 0 1 -46.32236,49.6419 z M 571.04837,307.2543 A 101.99999,101.99999 0 0 1 564,270 a 101.99999,101.99999 0 0 1 4.70156,-30.6 h 70.20071 z M 693.09776,300.6 760.95162,232.7457 A 101.99999,101.99999 0 0 1 768,270 101.99999,101.99999 0 0 1 763.29841,300.6 Z M 706.8,272.4738 v -95.9592 a 101.99999,101.99999 0 0 1 49.63731,46.3233 z m -10.20003,-29.5755 -67.85389,-67.8498 a 101.99999,101.99999 0 0 1 37.2539,-7.0485 101.99999,101.99999 0 0 1 30.59999,4.701 z M 572.51461,229.2 a 101.99999,101.99999 0 0 1 46.32234,-49.6374 L 668.47429,229.2 Z"
         style="fill:#252525"
         id="shutter" />
    </g>
    <path
       id="path80"
       style="fill:#252525"
       d="M 382.72849,208.85799 C 382.72849,156.45456 346.72961,120 271.54208,120 H 200 v 284.80126 h 29.16365 V 304.55121 l 38.73297,-0.45568 c 71.08639,-1.36704 114.83187,-32.8091 114.83187,-95.23754 z m -30.07502,1.36705 c 0,44.20115 -28.70796,65.16253 -82.93412,66.52957 l -40.5557,0.91137 V 146.88524 h 41.46706 c 53.3148,0 82.02276,22.7841 82.02276,63.3398 z" />
    <path
       id="path82"
       style="fill:#252525"
       d="m 437.65241,404.80126 h 28.70796 V 120 h -28.70796 z" />
    <path
       id="path86"
       style="fill:#252525"
       d="M 1080.0003,404.80126 973.82635,120 H 939.65019 L 831.65356,404.80126 h 29.61933 l 30.07501,-81.56708 h 128.958 l 30.075,81.56708 z M 956.05475,148.70797 1010.2809,296.80462 H 901.37291 Z" />
  </g>
  <g
     id="description">
    <path
       id="path21"
       style="fill:#252525"
       d="m 226.27368,66.83875 c 0,-7.53485 -5.17611,-12.77648 -15.98697,-12.77648 H 200 v 40.95025 h 4.19331 V 80.59803 l 5.56923,-0.0655 c 10.22119,-0.19656 16.51114,-4.71747 16.51114,-13.69376 z m -4.32434,0.19656 c 0,6.35548 -4.12779,9.36941 -11.92471,9.56598 l -5.83132,0.13104 V 57.92797 h 5.96236 c 7.66588,0 11.79367,3.27602 11.79367,9.10734 z" />
    <path
       id="path23"
       style="fill:#252525"
       d="m 245.03811,94.68492 11.66264,-29.68075 h -4.25883 l -9.23838,24.76672 -9.43493,-24.76672 h -4.38987 l 11.72815,29.54971 -2.03113,5.30715 c -2.09666,5.70027 -3.86571,6.94516 -6.15892,6.94516 -1.63801,0 -3.07946,-0.52416 -4.58643,-1.31041 l -1.24489,3.73467 c 1.83458,0.78624 3.53811,1.37592 5.83132,1.37592 4.12779,0 6.87964,-2.03113 9.69702,-9.43493 z" />
    <path
       id="path25"
       style="fill:#252525"
       d="m 277.06633,57.99349 h 14.41448 v -3.93122 h -33.02228 v 3.93122 h 14.41449 v 37.01903 h 4.19331 z" />
    <path
       id="path27"
       style="fill:#252525"
       d="m 318.74242,79.94283 c 0,-9.6315 -6.02788,-15.79042 -14.41449,-15.79042 -8.38661,0 -14.80761,6.35548 -14.80761,15.92146 0,9.6315 6.0934,15.79041 14.48001,15.79041 8.32109,0 14.74209,-6.35548 14.74209,-15.92145 z m -3.99674,0.13104 c 0,7.0762 -4.19331,12.12127 -10.54879,12.12127 -6.35548,0 -10.6143,-4.91403 -10.6143,-12.25231 0,-7.07621 4.1933,-12.12128 10.54878,-12.12128 6.35548,0 10.61431,4.91403 10.61431,12.25232 z" />
    <path
       id="path29"
       style="fill:#252525"
       d="m 330.35592,95.01252 v -19.263 c 2.35873,-5.43819 5.30715,-7.73141 8.45213,-7.73141 1.76905,0 3.27602,0.52417 4.58643,1.31041 l 1.04832,-3.80018 c -1.37593,-0.78625 -3.2105,-1.37593 -5.24163,-1.37593 -3.93122,0 -6.81412,2.48977 -8.84525,6.421 v -6.421 l -4.06227,0.85176 v 30.00835 z" />
    <path
       id="path31"
       style="fill:#252525"
       d="m 370.95911,93.30899 -0.85177,-3.73466 c -2.29321,1.50696 -5.24163,2.48977 -8.32109,2.48977 -6.35548,0 -10.6143,-4.78299 -10.6143,-12.12127 0,-7.07621 3.99674,-11.99024 10.54878,-11.99024 3.14498,0 6.02788,0.91729 8.32109,2.42426 l 1.04833,-3.66914 c -2.5553,-1.63801 -5.70027,-2.5553 -9.36942,-2.5553 -8.51765,0 -14.74209,6.55204 -14.74209,15.92146 0,9.30389 5.56924,15.79041 14.67657,15.79041 3.47258,0 6.7486,-0.9828 9.3039,-2.55529 z" />
    <path
       id="path33"
       style="fill:#252525"
       d="m 398.29237,95.01252 h 4.06227 V 74.43911 c 0,-6.55204 -3.5381,-10.2867 -9.36942,-10.2867 -3.34154,0 -7.27276,1.63801 -10.41774,4.78299 V 50 l -4.06227,0.85177 v 44.16075 h 4.06227 V 72.27694 c 2.55529,-2.5553 5.83131,-4.25883 9.3039,-4.25883 4.38986,0 6.42099,2.35874 6.42099,7.60037 z" />
    <path
       id="path35"
       style="fill:#252525"
       d="m 421.39037,95.01252 h 4.12778 V 54.06227 h -4.12778 z" />
    <path
       id="path37"
       style="fill:#252525"
       d="m 473.18526,95.01252 h 4.06227 V 74.50463 c 0,-6.61756 -3.47259,-10.35222 -9.23838,-10.35222 -3.47258,0 -7.27277,1.63801 -10.61431,4.97955 -1.50697,-3.34154 -4.38986,-4.97955 -8.12453,-4.97955 -3.07945,0 -6.421,1.31041 -9.50045,4.12778 v -4.12778 l -4.06227,0.85176 v 30.00835 h 4.06227 V 71.49069 c 2.29321,-2.03113 5.17611,-3.47258 8.32109,-3.47258 4.38986,0 6.35548,2.42426 6.35548,7.66589 v 19.32852 h 4.06226 V 74.57015 c 0,-0.72072 -0.0655,-2.22769 -0.13104,-2.68633 2.29321,-2.16218 5.24163,-3.86571 8.45213,-3.86571 4.38987,0 6.35548,2.42426 6.35548,7.66589 z" />
    <path
       id="path39"
       style="fill:#252525"
       d="m 502.17089,79.61522 v 8.77974 c -1.83457,2.09665 -4.58643,3.93122 -7.79693,3.93122 -3.60362,0 -6.15891,-2.03113 -6.15891,-5.24163 0,-3.99674 3.66914,-6.22444 13.95584,-7.46933 z m 0.0655,11.79368 h 0.19656 c 0.45865,2.94841 2.62082,4.5209 6.55204,4.25882 l 0.26208,-3.34154 c -2.62081,0.0655 -3.01393,-0.85176 -3.01393,-3.01394 V 74.89776 c 0.0655,-7.60037 -3.73467,-10.74535 -10.74535,-10.74535 -3.93122,0 -8.51765,1.70353 -11.13847,3.60362 l 0.91729,3.80018 c 2.62081,-1.90009 6.55204,-3.60362 9.82806,-3.60362 4.97955,0 7.0762,2.42426 7.0762,7.14173 v 1.76905 c -13.95584,0.72072 -18.21467,5.30715 -18.21467,10.67982 0,4.78299 3.99674,8.32109 9.50046,8.32109 3.60362,0 6.7486,-1.90009 8.77973,-4.45538 z" />
    <path
       id="path41"
       style="fill:#252525"
       d="m 517.59785,75.48744 c 0,-4.71747 2.81738,-7.99349 7.53485,-7.99349 5.04507,0 7.66588,3.34154 7.66588,7.79693 0,4.65195 -2.81737,7.86245 -7.46932,7.86245 -4.91403,0 -7.73141,-3.27602 -7.73141,-7.66589 z m 3.5381,20.37684 c 1.76905,0.19656 4.25883,0.19656 6.28996,0.19656 6.02788,0 9.10734,1.17937 9.10734,4.78299 0,4.06227 -5.04507,7.07621 -11.26951,7.07621 -6.35548,0 -10.22118,-2.5553 -10.22118,-6.15892 0,-2.5553 2.42425,-4.91403 6.09339,-5.89684 z m -3.5381,-0.78624 c -3.93122,0.9828 -6.48652,3.99674 -6.48652,7.4038 0,5.24164 5.50372,8.77974 13.56272,8.77974 8.38662,0 15.79042,-4.58643 15.79042,-11.13847 0,-4.97955 -3.73466,-7.86245 -12.44888,-7.86245 h -3.8657 c -5.30715,0 -6.81412,-1.17937 -6.81412,-3.07946 0,-1.76905 1.76905,-2.88289 3.34154,-3.60362 1.50697,0.52416 2.81738,0.85177 4.45539,0.85177 6.61756,0 11.66263,-4.65195 11.66263,-11.00743 0,-2.42426 -0.91729,-5.24163 -2.42426,-6.7486 l 6.61756,0.6552 -0.19656,-4.06226 -8.32109,0.6552 c -1.63801,-0.98281 -3.93122,-1.76905 -7.0762,-1.76905 -7.0762,0 -11.79367,4.91403 -11.79367,11.26951 0,4.1933 1.96561,7.4038 4.84851,9.17285 -2.81738,1.04833 -4.91403,3.14498 -4.91403,5.70028 0,2.16217 1.50697,3.80018 4.06226,4.78299 z" />
    <path
       id="path43"
       style="fill:#252525"
       d="m 548.17952,80.46699 v -0.3276 l 20.31132,-0.13104 c 0.45864,-1.31041 0.65521,-3.2105 0.65521,-4.78299 0,-6.81412 -4.32435,-11.07295 -10.94191,-11.07295 -8.12453,0 -14.15241,6.68308 -14.15241,16.11802 0,9.17285 5.83132,15.59385 14.48001,15.59385 3.73466,0 7.0762,-0.9828 9.6315,-2.55529 L 567.377,89.57433 c -2.29322,1.50696 -5.37268,2.48977 -8.71422,2.48977 -6.28996,0 -10.2867,-4.78299 -10.48326,-11.59711 z m 16.90426,-3.60362 -16.64218,0.0655 c 0.72072,-4.97955 4.06226,-9.10734 9.50046,-9.10734 4.71747,0 7.20724,3.07946 7.20724,7.73141 0,0.3276 0,0.98281 -0.0655,1.31041 z" />
    <path
       id="path45"
       style="fill:#252525"
       d="m 625.84575,100.97487 -13.43168,-6.81412 c 7.33828,-3.14498 12.18679,-10.35222 12.18679,-19.78716 0,-12.57991 -8.71421,-21.16309 -20.11476,-21.16309 -11.72815,0 -20.18028,8.84526 -20.18028,21.42517 0,12.64544 8.77973,21.22861 20.11476,21.22861 0.98281,0 1.83457,-0.0655 2.81738,-0.26208 l 16.77322,8.9763 z m -5.50371,-26.3392 c 0,10.28671 -6.61756,17.49395 -15.7249,17.49395 -9.23837,0 -16.0525,-7.20724 -16.0525,-17.75603 0,-10.2867 6.61756,-17.42842 15.79042,-17.42842 9.3039,0 15.98698,7.14172 15.98698,17.6905 z" />
    <path
       id="path47"
       style="fill:#252525"
       d="m 636.19695,65.00417 h -4.06226 v 20.57341 c 0,6.55204 3.60362,10.2867 9.43494,10.2867 3.34154,0 7.27276,-1.70353 10.35222,-4.84851 v 4.84851 l 4.06226,-0.85176 V 65.00417 h -4.06226 v 22.73558 c -2.42426,2.5553 -5.7658,4.25883 -9.23838,4.25883 -4.45538,0 -6.48652,-2.35873 -6.48652,-7.60037 z" />
    <path
       id="path49"
       style="fill:#252525"
       d="m 681.07229,79.61522 v 8.77974 c -1.83457,2.09665 -4.58643,3.93122 -7.79693,3.93122 -3.60362,0 -6.15892,-2.03113 -6.15892,-5.24163 0,-3.99674 3.66915,-6.22444 13.95585,-7.46933 z m 0.0655,11.79368 h 0.19656 c 0.45864,2.94841 2.62082,4.5209 6.55204,4.25882 l 0.26208,-3.34154 c -2.62081,0.0655 -3.01394,-0.85176 -3.01394,-3.01394 V 74.89776 c 0.0655,-7.60037 -3.73466,-10.74535 -10.74534,-10.74535 -3.93123,0 -8.51765,1.70353 -11.13847,3.60362 l 0.91729,3.80018 c 2.62081,-1.90009 6.55204,-3.60362 9.82806,-3.60362 4.97955,0 7.0762,2.42426 7.0762,7.14173 v 1.76905 c -13.95585,0.72072 -18.21467,5.30715 -18.21467,10.67982 0,4.78299 3.99674,8.32109 9.50046,8.32109 3.60362,0 6.7486,-1.90009 8.77973,-4.45538 z" />
    <path
       id="path51"
       style="fill:#252525"
       d="m 694.20607,95.01252 h 4.06226 V 50 l -4.06226,0.85177 z" />
    <path
       id="path53"
       style="fill:#252525"
       d="m 712.49137,55.11059 c 0,-1.50697 -0.91728,-2.88289 -2.75185,-2.88289 -1.83458,0 -2.75186,1.37592 -2.75186,2.88289 0,1.57249 0.91728,3.01394 2.75186,3.01394 1.83457,0 2.75185,-1.44145 2.75185,-3.01394 z m -4.78299,39.90193 h 4.06227 V 64.15241 l -4.06227,0.85176 z" />
    <path
       id="path55"
       style="fill:#252525"
       d="m 736.27423,94.42283 -0.72072,-3.5381 c -1.83457,0.78625 -3.73466,1.44145 -5.7658,1.44145 -3.07946,0 -4.5209,-1.90009 -4.38986,-5.63475 l 0.45864,-17.95259 h 9.9591 l 0.19656,-3.60362 h -10.02462 l 0.19656,-7.01069 h -3.8657 l -0.19656,6.81412 -4.52091,1.04833 -0.19656,2.5553 4.58643,0.26208 -0.45865,17.75603 c -0.19656,6.28996 2.29322,9.43493 8.05901,9.43493 2.16218,0 4.58643,-0.58968 6.68308,-1.57249 z" />
    <path
       id="path57"
       style="fill:#252525"
       d="m 753.97295,94.68492 11.66263,-29.68075 h -4.25882 l -9.23838,24.76672 -9.43494,-24.76672 h -4.38986 l 11.72815,29.54971 -2.03114,5.30715 c -2.09665,5.70027 -3.8657,6.94516 -6.15891,6.94516 -1.63801,0 -3.07946,-0.52416 -4.58643,-1.31041 l -1.24489,3.73467 c 1.83457,0.78624 3.5381,1.37592 5.83132,1.37592 4.12778,0 6.87964,-2.03113 9.69702,-9.43493 z" />
    <path
       id="path59"
       style="fill:#252525"
       d="M 811.66366,95.01252 796.39741,54.06227 h -4.91403 l -15.52833,40.95025 h 4.25882 l 4.32435,-11.72815 h 18.54227 l 4.32435,11.72815 z m -17.82155,-36.82247 7.79693,21.29413 h -15.65937 z" />
    <path
       id="path61"
       style="fill:#252525"
       d="m 835.33087,86.82247 c 0,-5.56924 -4.58643,-7.53485 -8.84526,-8.77974 -3.8657,-1.24488 -7.4038,-2.22769 -7.4038,-5.63475 0,-2.8829 2.35873,-4.58643 6.02787,-4.58643 2.62082,0 5.63476,0.85177 8.19005,2.2277 l 1.17937,-3.66915 c -2.5553,-1.3104 -5.7658,-2.22769 -9.10734,-2.22769 -5.63475,0 -10.15566,3.2105 -10.15566,8.64869 0,5.24163 4.58643,7.33829 8.71422,8.51765 3.73466,1.24489 7.53484,2.16218 7.53484,5.83132 0,3.27602 -3.14498,5.04507 -6.7486,5.04507 -3.07946,0 -6.28996,-0.9828 -8.84525,-2.75186 l -1.11385,3.73467 c 2.55529,1.63801 6.22444,2.68633 9.82806,2.68633 6.02788,0 10.74535,-3.60362 10.74535,-9.04181 z" />
    <path
       id="path63"
       style="fill:#252525"
       d="m 861.05273,86.82247 c 0,-5.56924 -4.58643,-7.53485 -8.84526,-8.77974 -3.8657,-1.24488 -7.4038,-2.22769 -7.4038,-5.63475 0,-2.8829 2.35873,-4.58643 6.02788,-4.58643 2.62081,0 5.63475,0.85177 8.19005,2.2277 l 1.17936,-3.66915 c -2.55529,-1.3104 -5.76579,-2.22769 -9.10733,-2.22769 -5.63476,0 -10.15567,3.2105 -10.15567,8.64869 0,5.24163 4.58643,7.33829 8.71422,8.51765 3.73466,1.24489 7.53484,2.16218 7.53484,5.83132 0,3.27602 -3.14498,5.04507 -6.7486,5.04507 -3.07946,0 -6.28996,-0.9828 -8.84525,-2.75186 l -1.11385,3.73467 c 2.5553,1.63801 6.22444,2.68633 9.82806,2.68633 6.02788,0 10.74535,-3.60362 10.74535,-9.04181 z" />
    <path
       id="path65"
       style="fill:#252525"
       d="m 870.53474,80.46699 v -0.3276 l 20.31133,-0.13104 c 0.45864,-1.31041 0.6552,-3.2105 0.6552,-4.78299 0,-6.81412 -4.32435,-11.07295 -10.94191,-11.07295 -8.12453,0 -14.1524,6.68308 -14.1524,16.11802 0,9.17285 5.83131,15.59385 14.48001,15.59385 3.73466,0 7.0762,-0.9828 9.63149,-2.55529 l -0.78624,-3.73466 c -2.29321,1.50696 -5.37267,2.48977 -8.71421,2.48977 -6.28996,0 -10.28671,-4.78299 -10.48327,-11.59711 z m 16.90427,-3.60362 -16.64219,0.0655 c 0.72073,-4.97955 4.06227,-9.10734 9.50046,-9.10734 4.71747,0 7.20725,3.07946 7.20725,7.73141 0,0.3276 0,0.98281 -0.0655,1.31041 z" />
    <path
       id="path67"
       style="fill:#252525"
       d="m 917.23138,86.82247 c 0,-5.56924 -4.58643,-7.53485 -8.84526,-8.77974 -3.8657,-1.24488 -7.4038,-2.22769 -7.4038,-5.63475 0,-2.8829 2.35873,-4.58643 6.02788,-4.58643 2.62081,0 5.63475,0.85177 8.19005,2.2277 l 1.17936,-3.66915 c -2.55529,-1.3104 -5.76579,-2.22769 -9.10733,-2.22769 -5.63476,0 -10.15567,3.2105 -10.15567,8.64869 0,5.24163 4.58643,7.33829 8.71422,8.51765 3.73466,1.24489 7.53484,2.16218 7.53484,5.83132 0,3.27602 -3.14498,5.04507 -6.7486,5.04507 -3.07946,0 -6.28996,-0.9828 -8.84525,-2.75186 l -1.11385,3.73467 c 2.5553,1.63801 6.22444,2.68633 9.82806,2.68633 6.02788,0 10.74535,-3.60362 10.74535,-9.04181 z" />
    <path
       id="path69"
       style="fill:#252525"
       d="m 942.95324,86.82247 c 0,-5.56924 -4.58643,-7.53485 -8.84525,-8.77974 -3.86571,-1.24488 -7.40381,-2.22769 -7.40381,-5.63475 0,-2.8829 2.35874,-4.58643 6.02788,-4.58643 2.62081,0 5.63475,0.85177 8.19005,2.2277 l 1.17937,-3.66915 c -2.5553,-1.3104 -5.7658,-2.22769 -9.10734,-2.22769 -5.63475,0 -10.15566,3.2105 -10.15566,8.64869 0,5.24163 4.58643,7.33829 8.71421,8.51765 3.73466,1.24489 7.53485,2.16218 7.53485,5.83132 0,3.27602 -3.14498,5.04507 -6.7486,5.04507 -3.07946,0 -6.28996,-0.9828 -8.84526,-2.75186 l -1.11385,3.73467 c 2.5553,1.63801 6.22444,2.68633 9.82806,2.68633 6.02788,0 10.74535,-3.60362 10.74535,-9.04181 z" />
    <path
       id="path71"
       style="fill:#252525"
       d="m 987.75075,95.01252 h 4.06227 V 74.50463 c 0,-6.61756 -3.47259,-10.35222 -9.23838,-10.35222 -3.47258,0 -7.27276,1.63801 -10.61431,4.97955 -1.50696,-3.34154 -4.38986,-4.97955 -8.12453,-4.97955 -3.07945,0 -6.42099,1.31041 -9.50045,4.12778 v -4.12778 l -4.06227,0.85176 v 30.00835 h 4.06227 V 71.49069 c 2.29321,-2.03113 5.17611,-3.47258 8.32109,-3.47258 4.38986,0 6.35548,2.42426 6.35548,7.66589 v 19.32852 h 4.06226 V 74.57015 c 0,-0.72072 -0.0655,-2.22769 -0.13104,-2.68633 2.29321,-2.16218 5.24163,-3.86571 8.45213,-3.86571 4.38987,0 6.35548,2.42426 6.35548,7.66589 z" />
    <path
       id="path73"
       style="fill:#252525"
       d="m 1003.2391,80.46699 v -0.3276 l 20.3114,-0.13104 c 0.4586,-1.31041 0.6552,-3.2105 0.6552,-4.78299 0,-6.81412 -4.3244,-11.07295 -10.9419,-11.07295 -8.1246,0 -14.15244,6.68308 -14.15244,16.11802 0,9.17285 5.83134,15.59385 14.48004,15.59385 3.7346,0 7.0762,-0.9828 9.6315,-2.55529 l -0.7863,-3.73466 c -2.2932,1.50696 -5.3727,2.48977 -8.7142,2.48977 -6.29,0 -10.2867,-4.78299 -10.4833,-11.59711 z m 16.9043,-3.60362 -16.6422,0.0655 c 0.7207,-4.97955 4.0623,-9.10734 9.5005,-9.10734 4.7174,0 7.2072,3.07946 7.2072,7.73141 0,0.3276 0,0.98281 -0.065,1.31041 z" />
    <path
       id="path75"
       style="fill:#252525"
       d="m 1051.7048,95.01252 h 4.0623 V 74.43911 c 0,-6.55204 -3.5381,-10.2867 -9.566,-10.2867 -3.145,0 -7.0762,1.76905 -10.2212,4.91403 v -4.91403 l -4.0622,0.85176 v 30.00835 h 4.0622 V 72.27694 c 2.5553,-2.5553 5.7658,-4.25883 9.1074,-4.25883 4.5209,0 6.6175,2.35874 6.6175,7.60037 z" />
    <path
       id="path77"
       style="fill:#252525"
       d="m 1080.0004,94.42283 -0.7207,-3.5381 c -1.8346,0.78625 -3.7347,1.44145 -5.7658,1.44145 -3.0795,0 -4.5209,-1.90009 -4.3899,-5.63475 l 0.4587,-17.95259 h 9.9591 l 0.1965,-3.60362 h -10.0246 l 0.1966,-7.01069 h -3.8657 l -0.1966,6.81412 -4.5209,1.04833 -0.1966,2.5553 4.5865,0.26208 -0.4587,17.75603 c -0.1965,6.28996 2.2932,9.43493 8.059,9.43493 2.1622,0 4.5865,-0.58968 6.6831,-1.57249 z" />
  </g>
</svg>
